<svg xmlns="http://www.w3.org/2000/svg" viewBox="0 0 100 100">
  <defs>
    <clipPath id="clip">
      <circle cx="50" cy="50" r="44"/>
    </clipPath>
  </defs>
  <circle cx="50" cy="50" r="50" fill="#0d1a33"/>
  <circle cx="50" cy="50" r="44" fill="#0a1628"/>
  <g clip-path="url(#clip)" fill="#c9a227">
    <path d="M50 10 L61 18 L57 32 L43 32 L39 18 Z"/>
    <path d="M75 17 L78 26 L70 31 L62 26 L65 17 Z"/>
    <path d="M90 64 L82 69 L74 64 L77 55 L87 55 Z"/>
    <path d="M50 92 L42 87 L45 78 L55 78 L58 87 Z"/>
    <path d="M10 64 L13 55 L23 55 L26 64 L18 69 Z"/>
    <path d="M25 17 L35 17 L38 26 L30 31 L22 26 Z"/>
  </g>
  <circle cx="50" cy="50" r="44" fill="none" stroke="#c9a227" stroke-width="4"/>
</svg>
